<?xml version="1.0" encoding="UTF-8"?><svg id="Layer_2" xmlns="http://www.w3.org/2000/svg" xmlns:xlink="http://www.w3.org/1999/xlink" viewBox="0 0 854.94 239.99"><defs><style>.cls-1{fill:#fff;}.cls-2{isolation:isolate;}</style></defs><g id="Layer_2-2"><g id="Layer_1-2"><g><g><path class="cls-1" d="M235.86,161.51V85.01c0-1.7,.6-2.3,2.2-2.3h30.6c15.9,0,25.8,9.5,25.8,25.4s-9.9,25.2-25.8,25.2h-24.6v28.2c0,1.7-.6,2.3-2.2,2.3h-3.9c-1.5,0-2.1-.6-2.1-2.3Zm32.1-35.8c11.1,0,17.9-6.5,17.9-17.6s-6.9-17.7-17.9-17.7h-23.9v35.3s23.9,0,23.9,0Z"/><path class="cls-1" d="M305.26,142.31v-14.8c0-15.1,8.7-24.1,25.2-24.1s25.4,9.9,25.4,23.6v6.3c0,1.9-.9,3.2-3.4,3.2h-39.5v6.6c0,9.7,5.8,15.7,17.1,15.7,9.4,0,14.7-3.8,17.9-9.5,1-1.4,1.8-1.6,3.3-.8l2.4,1.3c1.5,.8,1.7,1.8,.8,3.3-4,7.2-11.3,12.3-24.6,12.3-16.9,0-24.6-9.4-24.6-23.1h0Zm43-11.7v-4c0-10.2-5.9-16.6-17.7-16.6s-17.6,6.4-17.6,16.6v4h35.3Z"/><path class="cls-1" d="M371.46,161.81V81.31c0-1.6,.5-2.1,2.1-2.1h3.5c1.5,0,2.1,.5,2.1,2.1v80.4c0,1.6-.6,2.1-2.1,2.1h-3.5c-1.7,0-2.1-.4-2.1-2Z"/><path class="cls-1" d="M395.46,142.31v-14.8c0-15.1,8.7-24.1,25.2-24.1s25.4,9.9,25.4,23.6v6.3c0,1.9-.9,3.2-3.4,3.2h-39.5v6.6c0,9.7,5.8,15.7,17.1,15.7,9.4,0,14.7-3.8,17.9-9.5,1-1.4,1.8-1.6,3.3-.8l2.4,1.3c1.5,.8,1.7,1.8,.8,3.3-4,7.2-11.3,12.3-24.6,12.3-17,0-24.6-9.4-24.6-23.1h0Zm42.9-11.7v-4c0-10.2-5.9-16.6-17.7-16.6s-17.6,6.4-17.6,16.6v4h35.3Z"/><path class="cls-1" d="M460.86,161.81v-48.3c0-3.5,.9-4.8,4.3-6.3,4.5-1.8,11-3.9,21.2-3.9,15.6,0,22.7,8.3,22.7,22.4v36c0,1.6-.6,2.1-2.1,2.1h-3.5c-1.6,0-2.1-.5-2.1-2.1v-35.7c0-10.3-4.9-15.7-16-15.7-6.5,0-11.8,1.4-15.2,2.6-1.6,.7-1.8,1.6-1.8,2.9v45.9c0,1.6-.5,2.1-2.1,2.1h-3.5c-1.3,0-1.9-.4-1.9-2h0Z"/><path class="cls-1" d="M526.06,87.31v-.7c0-3.4,.9-4.2,4.2-4.2h.7c3.3,0,4.2,.8,4.2,4.2v.7c0,3.3-.9,4.2-4.2,4.2h-.7c-3.2,0-4.2-.8-4.2-4.2Zm.7,74.5v-54.6c0-1.6,.6-2.1,2.1-2.1h3.5c1.6,0,2.1,.5,2.1,2.1v54.6c0,1.6-.5,2.1-2.1,2.1h-3.5c-1.5-.1-2.1-.5-2.1-2.1Z"/><path class="cls-1" d="M549.26,147.71c0-13.1,7.2-17.6,25.1-17.6,6.7,0,12.9,.8,15,1.1v-5.4c0-8.9-3-15.7-15.4-15.7-8,0-13,3-16.1,8.2-.8,1.4-1.3,1.6-2.7,1l-2.7-1.1c-1.5-.6-1.9-1.4-1.1-3,4-7.5,11.4-12,23-12,18.2,0,22.8,10.3,22.8,22.6v29.9c0,4-.9,5.1-4.1,6.5-4.2,1.8-10.3,3-19,3-20,.2-24.8-6.1-24.8-17.5h0Zm38,9.5c1.7-.7,2.2-1.1,2.2-3.3v-16.6c-2.3-.2-9.1-1-15.8-1-12.5,0-16.6,3.4-16.6,11.3,0,7.2,2.9,11.4,16.3,11.4,6.4,0,10.7-.6,13.9-1.8Z"/></g><g><image class="cls-2" width="237" height="241" transform="" xlink:href="CDEE50BF7F9F537C.png"/><g><path class="cls-1" d="M118.46,87.71c-1.6,0-3-.6-4.1-1.7l-4.6-4.6c-5.3-5.3-8.2-12.4-8.2-19.9s2.9-14.6,8.2-19.9l.7-.7c4.8-4.8,12.6-4.8,17.4,0,11,11,11,28.8,0,39.8l-5.2,5.2c-1.2,1.2-2.6,1.8-4.2,1.8h0Zm.6-45.9c-2,0-4.1,.8-5.6,2.3l-.7,.7c-4.5,4.5-6.9,10.4-6.9,16.8s2.5,12.3,6.9,16.8l4.6,4.6c.5,.5,1.4,.5,2,0l5.2-5.2c9.2-9.2,9.2-24.3,0-33.5-1.4-1.7-3.4-2.5-5.5-2.5h0Z"/><path class="cls-1" d="M169.66,118.51c-4.4,0-8.7-1-12.8-3.1l-6.6-3.4c-2.9-1.5-4-5-2.5-7.8l3-5.8c7.1-13.8,24-19.3,37.8-12.3l.8,.4c2.9,1.5,5.1,4,6.1,7.2s.8,6.5-.8,9.4h0c-3.4,6.7-9.2,11.7-16.4,14-2.8,1-5.7,1.4-8.6,1.4h0Zm6.1-31c-8.6,0-16.9,4.7-21.1,12.9l-3,5.8c-.4,.7-.1,1.5,.6,1.9l6.6,3.4c11.6,5.9,25.9,1.3,31.9-10.3h0c1-1.9,1.1-4,.5-6s-2-3.6-3.9-4.6l-.8-.4c-3.5-1.8-7.2-2.7-10.8-2.7h0Z"/><path class="cls-1" d="M158.16,186.11c-.6,0-1.3-.1-2-.2h0c-15.3-2.4-25.8-16.9-23.3-32.2l1.2-7.3c.5-3.2,3.5-5.3,6.7-4.8l6.4,1c7.4,1.2,13.9,5.2,18.3,11.3,4.4,6.1,6.2,13.5,5,20.9l-.1,.9c-1,6.1-6.3,10.4-12.2,10.4h0Zm-1.3-4.5c2.1,.3,4.2-.2,5.9-1.4s2.8-3.1,3.2-5.1l.1-.9c1-6.2-.5-12.5-4.2-17.6s-9.2-8.5-15.4-9.5l-6.4-1c-.8-.1-1.5,.4-1.6,1.2l-1.2,7.3c-2.1,12.8,6.7,25,19.6,27h0Z"/><path class="cls-1" d="M77.66,185.31c-6,0-11.2-4.4-12.2-10.4-2.4-15.3,8.1-29.7,23.5-32.1l7.3-1.1c1.5-.2,3.1,.1,4.3,1.1,1.3,.9,2.1,2.3,2.3,3.8l1,6.4c1.2,7.4-.7,14.9-5.1,20.9-4.4,6.1-11,10-18.4,11.2l-.9,.1c-.5,0-1.1,.1-1.8,.1h0Zm19.6-39.4h-.2l-7.3,1.1c-12.9,2-21.8,14.1-19.8,27h0c.7,4.3,4.7,7.3,9,6.6l.9-.1c6.2-1,11.8-4.3,15.5-9.4,3.7-5.1,5.2-11.4,4.3-17.6l-1-6.4c-.1-.4-.3-.7-.6-.9-.3-.2-.6-.3-.8-.3h0Z"/><path class="cls-1" d="M68.36,118.01c-10.3,0-20.2-5.7-25.1-15.4l-.4-.8c-1.5-2.9-1.7-6.3-.7-9.4s3.1-5.8,6.1-7.3h0c13.8-7,30.8-1.4,37.8,12.4l3.3,6.6c.7,1.4,.8,3,.3,4.4-.5,1.5-1.5,2.7-2.9,3.4l-5.8,2.9c-4.1,2.2-8.4,3.2-12.6,3.2Zm-18.2-28.9h0c-1.9,1-3.3,2.6-4,4.6s-.5,4.2,.5,6l.4,.8c5.9,11.7,20.2,16.4,31.9,10.5l5.8-2.9c.3-.2,.6-.5,.7-.8,.1-.4,.1-.7-.1-1.1l-3.3-6.6c-2.9-5.7-7.8-9.9-13.8-11.9-6-1.9-12.4-1.4-18.1,1.4h0Z"/><path class="cls-1" d="M118.46,202.51h-.7c-5.1-.4-9.3-4.4-9.7-9.5-.3-3.4,1.1-6.8,3.8-9,1.6-1.3,2.4-3.1,2.4-4.9v-2c0-2-.8-3.8-2.3-5-2.5-2-3.9-5-3.9-8.2s1.4-6.2,3.9-8.1c1.5-1.2,2.3-3,2.4-5v-2.9c0-1.9-.9-3.7-2.4-4.9-2.6-2.1-4-5.4-3.8-8.7-.7-.5-1.4-1-2.1-1.6-.2,.1-.4,.1-.6,.2-3.1,.9-6.3,.4-8.9-1.4-1.6-1.1-3.6-1.4-5.5-.8l-2.6,.8c-1.9,.6-3.4,1.9-4.2,3.7-1.2,2.9-3.7,5.2-6.7,6.1-3.1,.9-6.3,.4-8.9-1.4-1.6-1.1-3.6-1.4-5.5-.8l-1.8,.5c-1.9,.6-3.4,1.9-4.2,3.7-1.2,2.9-3.6,5.2-6.7,6.1-2.8,.8-5.8,.4-8.2-1-2.5-1.5-4.3-3.9-4.9-6.7-1.1-5,1.6-10.1,6.4-12,3.2-1.2,6.8-.8,9.7,1.1,1.7,1.1,3.6,1.5,5.4,.9l1.9-.6c1.9-.6,3.4-1.9,4.2-3.7,1.2-2.9,3.7-5.2,6.7-6.1s6.3-.4,8.9,1.4c1.6,1.1,3.6,1.4,5.5,.8l2.8-.8c1.8-.5,3.3-1.9,4-3.7,1.3-3.2,4.1-5.5,7.5-6.2h.1c.2-.5,.4-1,.6-1.6-.2-.2-.4-.5-.6-.8-1.8-2.6-2.3-5.9-1.4-8.9,.5-1.8,.2-3.8-.9-5.5l-1.6-2.2c-1.1-1.6-2.9-2.7-4.8-2.8-3.2-.2-6.1-1.8-7.9-4.5-1.8-2.6-2.3-5.9-1.4-8.9,.5-1.8,.2-3.8-.9-5.5l-1.3-1.6c-1.1-1.6-2.9-2.6-4.8-2.8-3.2-.2-6-1.8-7.9-4.5-1.6-2.4-2.2-5.3-1.6-8.1,.6-2.9,2.3-5.3,4.8-6.8,4.4-2.6,10.1-1.7,13.4,2.3,2.2,2.7,2.9,6.2,2,9.5-.6,1.9-.2,3.9,.8,5.5l1.2,1.7c1.1,1.6,2.9,2.7,4.8,2.8,3.2,.2,6,1.8,7.9,4.4,1.8,2.6,2.3,5.9,1.4,8.9-.5,1.8-.2,3.8,.9,5.5l1.6,2.3c1.1,1.5,2.8,2.5,4.8,2.7,3.4,.3,6.5,2.2,8.2,5.2,.1,.1,.1,.2,.2,.3h1.4c.2-.4,.4-.7,.7-1,1.9-2.5,4.8-4.1,8-4.2,1.9-.1,3.7-1,4.9-2.6l1.6-2.2c1.2-1.6,1.6-3.6,1.1-5.4-.8-3.1-.2-6.3,1.8-8.9,1.9-2.5,4.8-4.1,8-4.2,1.9-.1,3.7-1,4.9-2.6l1.1-1.5c1.2-1.6,1.6-3.6,1.1-5.4-.8-3.1-.2-6.3,1.7-8.9,1.7-2.3,4.4-3.8,7.2-4.1,2.9-.3,5.7,.6,7.9,2.5,3.9,3.3,4.8,9.1,2.1,13.4-1.8,2.9-5,4.8-8.4,4.9-2,.1-3.8,1-4.9,2.5l-1.2,1.6c-1.2,1.6-1.6,3.6-1.1,5.4,.8,3.1,.2,6.3-1.7,8.9-1.9,2.5-4.8,4.1-8,4.2-1.9,.1-3.7,1-4.9,2.6l-1.7,2.3c-1.1,1.5-1.5,3.5-1,5.4,.8,3.3-.1,6.9-2.3,9.4l-.2,.2c.2,.5,.3,1,.5,1.4,.3,.1,.7,.2,1,.3,3,1,5.4,3.3,6.5,6.3,.7,1.8,2.1,3.2,4,3.8l2.6,.8c1.9,.6,3.9,.4,5.5-.6,2.7-1.7,5.9-2.2,9-1.1,3,1,5.4,3.3,6.5,6.3,.7,1.8,2.1,3.2,4,3.8l1.8,.6c1.9,.6,3.9,.4,5.5-.7,2.7-1.7,5.9-2.1,9-1.1,2.7,.9,5,2.9,6.2,5.6s1.3,5.6,.2,8.3c-1.9,4.7-7.1,7.4-12.1,6.2-3.4-.8-6.1-3.2-7.3-6.4-.7-1.9-2.1-3.3-3.9-3.9l-1.9-.6c-1.9-.6-3.9-.4-5.5,.7-2.7,1.7-5.9,2.1-9,1.1-3-1-5.4-3.3-6.5-6.3-.7-1.8-2.2-3.2-4-3.8l-2.7-.9c-1.8-.6-3.8-.3-5.5,.8-2.9,1.8-6.4,2.1-9.6,.8-.5,.4-1,.8-1.5,1.1v.7c0,3.2-1.4,6.2-3.9,8.2-1.5,1.2-2.4,3-2.4,5v2.7c0,2,.8,3.8,2.3,5,2.5,2,3.9,5,3.9,8.2s-1.4,6.2-3.9,8.1c-1.5,1.2-2.4,3-2.4,5v1.9c0,2,.8,3.8,2.3,5,2.5,2,3.9,5,3.9,8.1,0,2.9-1.2,5.6-3.3,7.6-1.8,1.8-4.3,2.8-6.9,2.8h0Zm0-21.1c-.5,2.3-1.9,4.5-3.8,6.1-1.6,1.3-2.3,3.2-2.2,5.2,.2,2.9,2.6,5.3,5.6,5.5,1.7,.1,3.3-.4,4.5-1.6,1.2-1.1,1.9-2.7,1.9-4.4,0-1.8-.8-3.5-2.2-4.7-2-1.6-3.3-3.7-3.8-6.1Zm0-28.2c-.5,2.4-1.8,4.5-3.8,6.1-1.4,1.2-2.3,2.8-2.3,4.7,0,1.8,.8,3.5,2.2,4.7,1.9,1.5,3.2,3.7,3.7,6.1,.5-2.4,1.8-4.5,3.8-6.1,1.4-1.1,2.3-2.9,2.3-4.7s-.8-3.5-2.2-4.7c-1.9-1.6-3.2-3.8-3.7-6.1h0Zm60.1-15.1c2.1,1.2,3.7,3.2,4.6,5.5,.7,1.8,2.3,3.2,4.2,3.7,2.9,.7,5.8-.8,6.9-3.6,.6-1.6,.6-3.3-.1-4.8-.7-1.5-2-2.7-3.6-3.2h0c-1.7-.6-3.6-.3-5.2,.7-2,1.4-4.4,1.9-6.8,1.7h0Zm-71.7-10.9l1.2,1.2c1,1.1,2.2,1.9,3.5,2.6l1.5,.8-.4,1.6c-.1,.3-.1,.6-.1,.8-.2,2,.7,3.9,2.2,5.2,1.9,1.6,3.3,3.7,3.8,6.1,.5-2.4,1.8-4.5,3.8-6,1.4-1.1,2.2-2.8,2.3-4.7,0-.5-.1-.9-.2-1.3l-.4-1.6,1.5-.8c1.1-.6,2.2-1.4,3.1-2.3l1.2-1.2,1.5,.9c.3,.2,.6,.3,.8,.4,1.9,.8,3.9,.6,5.6-.4,2.1-1.3,4.6-1.9,7-1.7-2.1-1.3-3.7-3.2-4.5-5.5-.6-1.7-2-3-3.7-3.6-.5-.2-1-.3-1.6-.3l-1.7-.1-.3-1.7c-.2-1.2-.6-2.4-1.1-3.5l-.8-1.6,1.5-1.1c.3-.2,.6-.5,.8-.8,1.3-1.5,1.8-3.5,1.3-5.4-.6-2.5-.4-5,.6-7.1-1.8,1.6-4.2,2.5-6.6,2.6-1.8,.1-3.5,.9-4.6,2.4-.3,.5-.6,1-.8,1.5l-.6,1.7-1.8-.3c-1.2-.2-2.4-.2-3.6-.1l-1.8,.2-.6-1.7c-.1-.4-.3-.8-.5-1.1-1-1.8-2.7-2.8-4.8-3-2.5-.2-4.8-1.2-6.6-2.8,.9,2.3,1.1,4.7,.4,7.1-.5,1.8-.2,3.6,.8,5.1,.3,.4,.7,.8,1,1.1l1.4,1.2-1,1.6c-.6,1.1-1,2.3-1.3,3.5l-.4,1.7-1.7,.1c-.3,0-.6,.1-1,.1-1.9,.4-3.6,1.7-4.3,3.6-1,2.3-2.7,4.2-4.7,5.4,2.4-.2,4.8,.5,6.8,1.9,1.5,1.1,3.4,1.3,5.1,.8,.4-.1,.8-.3,1.2-.5l1.6-1h0Zm-59.3,5.9c-.7,0-1.5,.1-2.2,.4-2.7,1.1-4.3,4-3.7,6.9,.4,1.7,1.4,3,2.8,3.9,1.5,.8,3.1,1.1,4.7,.6,1.8-.5,3.2-1.8,3.8-3.5,.9-2.3,2.6-4.1,4.7-5.3-2.4,.2-4.8-.5-6.9-1.9-.9-.7-2.1-1.1-3.2-1.1h0Zm104.2-3.9c2.1,1.2,3.7,3.2,4.6,5.5,.6,1.7,2,3,3.7,3.6s3.6,.3,5.1-.7c2.1-1.3,4.5-1.9,6.9-1.7-2.1-1.3-3.7-3.2-4.6-5.5-.6-1.7-2-3-3.7-3.6s-3.6-.3-5.2,.7c-1.9,1.4-4.4,1.9-6.8,1.7Zm-86.7,4.9c2.2,0,4.3,.7,6.1,1.9,1.5,1.1,3.4,1.3,5.1,.8,1.8-.5,3.2-1.8,3.8-3.5,.9-2.3,2.6-4.1,4.7-5.3-2.4,.2-4.8-.5-6.9-1.9-1.5-1.1-3.4-1.3-5.1-.8-1.8,.5-3.2,1.8-3.8,3.5-.9,2.3-2.6,4.1-4.7,5.3h.8Zm87.3-61.3c-1.9,1.6-4.2,2.5-6.6,2.6-1.8,.1-3.5,.9-4.6,2.4s-1.5,3.3-1,5.1c.6,2.4,.4,4.9-.6,7.1,1.9-1.6,4.2-2.5,6.6-2.6,1.8-.1,3.5-.9,4.6-2.4s1.5-3.3,1-5.1c-.6-2.4-.4-4.9,.6-7.1h0Zm-66.2-1.1c.9,2.3,1.1,4.8,.4,7.1-.5,1.8-.2,3.6,.8,5.1,1.1,1.5,2.7,2.4,4.5,2.6,2.5,.2,4.8,1.2,6.5,2.8-.9-2.3-1.1-4.8-.4-7.1,.5-1.8,.2-3.6-.8-5.1-1.1-1.5-2.7-2.4-4.5-2.6-2.4-.2-4.7-1.2-6.5-2.8Zm76.7-18.9h-.7c-1.7,.2-3.1,1-4.1,2.4-1.1,1.5-1.5,3.3-1,5.1,.6,2.4,.4,4.9-.6,7.1,1.8-1.6,4.2-2.5,6.7-2.6,2-.1,3.8-1.1,4.8-2.8,1.6-2.5,1.1-5.8-1.2-7.7-1.1-1-2.5-1.5-3.9-1.5h0Zm-86.7-1.5c-1.1,0-2.1,.3-3.1,.9-1.5,.9-2.4,2.3-2.8,3.9-.3,1.6,0,3.3,1,4.7,1,1.5,2.7,2.4,4.5,2.6,2.4,.2,4.7,1.2,6.5,2.8-.9-2.2-1-4.7-.3-7.2,.6-1.9,.1-3.9-1.2-5.5-1.1-1.4-2.8-2.2-4.6-2.2h0Zm42.3,77.5c-5.8,0-10.5-4.8-10.5-10.5s4.7-10.5,10.5-10.5,10.5,4.7,10.5,10.5-4.6,10.4-10.3,10.5h-.2Zm0-16.5c-3.3,0-6.1,2.7-6.1,6.1s2.7,6,6,6.1h.1c3.3,0,6-2.8,6-6.1s-2.7-6.1-6-6.1h0Z"/></g></g></g><g class="cls-2"><path class="cls-1" d="M708.46,116.31l-3.5,20.1c-3.2,18-15.8,28.1-36.4,28.1h-25.5c-2.9,0-3.7-1-3.1-3.8l12.5-71.1c.6-2.8,1.5-3.8,4.4-3.8h24.8c20.6,.2,30,12.5,26.8,30.5Zm-28.9-17.3h-14.8l-9.5,52.6h15c11.6,0,19.1-5.6,21-16.2l3.5-20.4c1.9-10.4-3.6-16-15.2-16Z"/></g><g class="cls-2"><path class="cls-1" d="M706.76,160.91l40.3-71.9c1.3-2.5,2.5-3.1,5.1-3.1h5.9c2.5,0,3.8,.6,4.2,3l14.9,72.1c.4,2.4-.4,3.7-3.2,3.7h-5.2c-4.8,0-6-.7-6.3-3.3l-2.7-14.3h-30.5l-7.6,14.3c-1.4,2.7-2.8,3.3-7.5,3.3h-5.5c-2.9-.1-3.3-1.3-1.9-3.8Zm51.3-25.3l-4.4-23.4c-1.1-6.9-.2-13.4-.2-13.5h-.7c0,.1-1.3,6.6-4.9,13.4l-12.6,23.5h22.8Z"/></g><g class="cls-2"><path class="cls-1" d="M827.66,84.41c20.3,0,29.8,12.1,26.7,29.9l-4.3,24.2c-3.1,17.8-15.7,27.8-36.1,27.8s-29.9-11.8-26.8-29.7l4.2-24.2c3.2-17.8,15.9-28,36.3-28Zm-1.9,12.9c-11.4,0-18.8,5.5-20.6,15.8l-4.3,24.4c-1.8,10.3,3.7,15.8,15.1,15.8s18.6-5.5,20.5-15.8l4.3-24.4c1.7-10.3-3.7-15.8-15-15.8Z"/></g></g></g></svg>